<?xml version="1.0" encoding="UTF-8" standalone="no"?>
<!-- Generator: Adobe Illustrator 19.1.0, SVG Export Plug-In . SVG Version: 6.00 Build 0)  -->

<svg
   xmlns:dc="http://purl.org/dc/elements/1.1/"
   xmlns:cc="http://creativecommons.org/ns#"
   xmlns:rdf="http://www.w3.org/1999/02/22-rdf-syntax-ns#"
   xmlns:svg="http://www.w3.org/2000/svg"
   xmlns="http://www.w3.org/2000/svg"
   xmlns:sodipodi="http://sodipodi.sourceforge.net/DTD/sodipodi-0.dtd"
   xmlns:inkscape="http://www.inkscape.org/namespaces/inkscape"
   version="1.1"
   id="svg2"
   sodipodi:docname="linkedin-rect-grey.svg"
   inkscape:version="0.48.4 r9939"
   x="0px"
   y="0px"
   viewBox="469.8 230 100 100"
   style="enable-background:new 469.8 230 100 100;"
   xml:space="preserve"
   width="100%"
   height="100%"><metadata
   id="metadata9"><rdf:RDF><cc:Work
       rdf:about=""><dc:format>image/svg+xml</dc:format><dc:type
         rdf:resource="http://purl.org/dc/dcmitype/StillImage" /><dc:title></dc:title></cc:Work></rdf:RDF></metadata><defs
   id="defs7" />
<style
   type="text/css"
   id="style3">
	.st0{fill:#50514F;}
</style>
<sodipodi:namedview
   pagecolor="#ffffff"
   inkscape:cy="77.651572"
   inkscape:cx="20.03523"
   inkscape:zoom="3.776"
   objecttolerance="10"
   gridtolerance="10"
   guidetolerance="10"
   showgrid="false"
   borderopacity="1"
   id="namedview6"
   bordercolor="#666666"
   inkscape:current-layer="svg2"
   inkscape:window-maximized="1"
   inkscape:window-y="-8"
   inkscape:window-x="-8"
   inkscape:window-height="1377"
   inkscape:window-width="2560"
   inkscape:pageshadow="2"
   inkscape:pageopacity="0">
	</sodipodi:namedview>
<path
   id="path4"
   class="st0"
   d="M489.4,230c-10.8,0-19.6,8.8-19.6,19.6v60.8c0,10.8,8.8,19.6,19.6,19.6h60.8  c10.8,0,19.6-8.8,19.6-19.6v-60.8c0-10.8-8.8-19.6-19.6-19.6H489.4L489.4,230z M494.3,246.5c5.2,0,8.3,3.4,8.4,7.9  c0,4.4-3.3,7.8-8.5,7.8h-0.1c-5.1,0-8.3-3.5-8.3-7.8C485.8,249.9,489.1,246.5,494.3,246.5L494.3,246.5z M538.8,267.4  c9.9,0,17.4,6.5,17.4,20.5v26.1h-15.1v-24.3c0-6.1-2.2-10.3-7.7-10.3c-4.2,0-6.7,2.8-7.8,5.5c-0.4,1-0.5,2.3-0.5,3.7v25.4h-15.1  c0,0,0.2-41.2,0-45.4h15.1v6.4C527.2,271.8,530.8,267.4,538.8,267.4L538.8,267.4z M486.7,268.4h15.1v45.4h-15.1V268.4L486.7,268.4z"
   style="fill:#247ba0;fill-opacity:1" />
</svg>